<?xml version="1.0" standalone="no"?>
<!DOCTYPE svg PUBLIC "-//W3C//DTD SVG 20010904//EN"
 "http://www.w3.org/TR/2001/REC-SVG-20010904/DTD/svg10.dtd">
<svg version="1.0" xmlns="http://www.w3.org/2000/svg"
 width="2000.000000pt" height="1500.000000pt" viewBox="0 0 2000.000000 1500.000000"
 preserveAspectRatio="xMidYMid meet">

<g transform="translate(0.000000,1500.000000) scale(0.100000,-0.100000)"
fill="#000000" stroke="none">
<path d="M4063 12350 c-359 -183 -833 -728 -917 -1055 -38 -147 -30 -229 27
-291 18 -19 50 -41 72 -48 l39 -14 93 88 c51 48 122 107 157 130 40 26 66 51
68 64 2 11 -7 41 -19 66 -43 85 -50 317 -13 442 39 134 335 225 793 244 140 6
167 5 167 -7 -1 -8 -157 -792 -348 -1744 l-348 -1730 -50 -8 c-145 -24 -322
-61 -426 -90 -104 -28 -118 -34 -118 -53 0 -24 18 -126 23 -131 2 -2 60 3 128
11 232 27 568 39 904 32 176 -4 350 -10 388 -15 l67 -7 11 40 c11 39 10 42
-17 61 -61 43 -132 117 -158 164 -57 105 -69 181 -74 466 -6 359 21 794 78
1275 39 322 232 1665 241 1675 6 6 12 6 18 0 14 -15 232 -701 370 -1165 220
-739 358 -1303 422 -1725 18 -118 23 -192 23 -346 l0 -196 31 -20 30 -20 95
90 c106 100 264 222 416 320 l101 65 6 62 c14 128 93 444 203 810 169 558 706
2119 733 2128 14 5 16 -9 45 -243 79 -629 140 -1389 186 -2295 16 -307 30
-874 22 -881 -4 -4 -54 -15 -112 -24 -225 -36 -480 -102 -480 -124 0 -8 5 -43
11 -79 l11 -64 32 6 c309 54 1102 59 1660 11 93 -8 170 -14 172 -12 1 1 5 34
9 73 l7 72 -54 12 c-171 37 -360 72 -483 87 -77 9 -143 22 -147 27 -16 23 -65
339 -102 656 -74 621 -163 1683 -186 2195 -8 170 -8 303 0 455 14 271 17 294
50 298 89 10 326 58 443 89 125 34 138 39 133 58 -2 11 -10 46 -16 78 -11 56
-13 58 -38 53 -203 -41 -876 -57 -1421 -35 -145 6 -267 7 -271 2 -4 -4 -10
-22 -13 -39 -6 -29 -3 -32 42 -52 87 -40 161 -118 161 -172 0 -11 -90 -307
-199 -658 -311 -995 -488 -1581 -548 -1817 -25 -94 -32 -110 -50 -113 -23 -3
-25 3 -241 683 -308 970 -462 1573 -462 1811 l0 71 44 41 c24 22 79 57 122 77
44 21 80 39 82 40 1 1 -3 36 -10 78 -10 70 -13 76 -32 72 -206 -48 -501 -44
-1121 15 -170 17 -322 30 -337 30 -15 0 -71 -22 -125 -50z"/>
<path d="M13661 11484 c-8 -44 -9 -80 -4 -85 11 -11 260 -74 330 -84 61 -8 56
7 77 -230 31 -332 38 -668 33 -1402 -5 -677 -10 -801 -38 -1100 l-12 -122 -41
-6 c-53 -9 -234 -51 -301 -70 l-52 -16 12 -74 c6 -41 14 -77 16 -80 3 -2 54 2
115 10 304 39 795 44 1153 9 90 -8 167 -12 171 -7 4 4 11 38 15 75 6 59 4 67
-12 71 -58 17 -213 48 -308 62 -60 9 -128 20 -150 24 l-40 7 -12 94 c-21 177
-34 444 -40 881 l-6 436 154 12 c336 28 932 24 1249 -7 l65 -7 -3 -225 c-4
-348 -30 -961 -48 -1131 l-6 -56 -126 -27 c-70 -14 -158 -36 -195 -47 -69 -20
-69 -21 -63 -52 3 -18 8 -54 12 -80 l6 -48 37 6 c309 50 911 57 1299 14 56 -7
104 -10 107 -8 4 5 24 143 20 147 -7 8 -241 55 -367 74 -169 25 -150 7 -167
158 -31 270 -36 434 -36 1280 0 847 5 1013 36 1280 17 147 18 150 48 150 63 0
472 77 485 91 4 4 -14 142 -18 147 -2 1 -68 -4 -147 -13 -348 -38 -987 -28
-1270 20 -26 4 -27 2 -38 -72 -6 -42 -8 -80 -3 -85 10 -10 261 -73 329 -83
l52 -7 5 -51 c15 -136 37 -528 51 -909 l6 -167 -33 -6 c-107 -19 -252 -27
-573 -32 -350 -5 -526 1 -764 28 l-101 12 0 221 c0 235 13 546 30 736 17 182
5 164 118 178 100 13 305 51 378 71 l40 11 -9 72 c-5 40 -10 74 -12 76 -1 1
-72 -5 -156 -15 -224 -25 -881 -25 -1099 0 -85 10 -162 20 -171 23 -13 4 -18
-9 -28 -72z"/>
<path d="M10685 11520 c-291 -10 -583 -19 -647 -19 l-118 -1 0 -80 0 -80 49 0
c79 0 329 -56 353 -78 11 -11 37 -388 49 -712 13 -346 6 -1429 -10 -1660 -12
-158 -28 -334 -37 -391 l-5 -36 -107 -21 c-108 -21 -268 -64 -278 -75 -5 -5
13 -147 19 -154 2 -1 57 4 123 12 369 45 878 45 1241 0 64 -8 118 -14 119 -12
1 1 4 36 6 77 l3 75 -122 26 c-68 15 -190 37 -272 50 l-148 23 -12 110 c-31
316 -36 478 -36 1331 0 810 7 1066 31 1296 l6 57 72 20 c112 33 180 42 312 42
356 0 542 -127 620 -425 26 -100 27 -430 1 -525 -29 -109 -74 -189 -148 -263
-118 -118 -273 -174 -511 -184 l-136 -6 -6 -31 c-3 -17 -8 -64 -12 -105 l-7
-74 169 6 c254 9 440 54 645 157 438 217 637 535 598 952 -36 385 -275 607
-740 688 -174 30 -422 32 -1064 10z"/>
<path d="M5090 7595 c-544 -90 -944 -482 -999 -977 -45 -401 209 -829 612
-1031 209 -104 393 -143 636 -134 212 8 365 47 546 140 219 114 394 292 500
512 142 292 138 587 -11 875 -132 255 -380 464 -665 560 -182 62 -442 85 -619
55z"/>
<path d="M15095 7603 c-95 -13 -219 -54 -322 -107 -179 -91 -475 -349 -546
-477 -65 -115 -80 -170 -80 -294 -1 -151 35 -274 121 -414 22 -35 30 -64 36
-124 10 -113 40 -220 90 -322 57 -116 125 -204 226 -296 93 -85 120 -123 120
-170 0 -83 -53 -181 -121 -226 l-42 -28 -311 -5 c-301 -5 -313 -6 -359 -29
-57 -28 -96 -76 -112 -139 -11 -42 -9 -74 18 -258 l30 -210 -52 -88 c-110
-187 -172 -378 -192 -596 -6 -64 -9 -248 -7 -410 3 -280 4 -297 25 -335 26
-49 65 -86 119 -113 22 -11 45 -32 52 -47 23 -51 104 -125 169 -155 35 -16 69
-27 77 -24 8 3 33 0 56 -6 62 -17 2619 -17 2681 0 102 28 174 91 213 190 35
85 36 100 36 348 -1 390 -23 594 -86 792 -14 44 -22 85 -18 92 4 6 3 8 -3 5
-12 -8 -86 182 -108 277 -8 34 -14 99 -13 146 1 67 2 77 8 45 6 -35 7 -36 8
-10 2 42 -24 148 -47 193 -19 38 -81 101 -118 121 -11 5 -25 28 -32 51 -15 51
-62 105 -115 133 -37 20 -60 22 -256 27 l-215 5 -13 40 c-9 25 -12 63 -8 103
4 52 11 72 41 114 20 27 31 47 23 44 -7 -4 -3 1 10 10 12 9 22 23 22 31 0 7 7
16 15 19 8 4 15 12 15 19 0 7 10 20 23 29 12 9 15 14 7 11 -8 -4 -6 1 5 10 11
9 19 21 17 26 -1 5 2 9 7 9 5 0 20 17 33 37 12 20 31 49 40 63 65 95 139 283
152 385 4 28 11 67 17 88 16 62 20 94 27 262 4 106 9 146 13 120 4 -26 5 -18
2 23 -5 82 -43 202 -88 276 -19 32 -35 62 -35 67 0 16 -323 334 -403 397 -178
140 -376 234 -566 267 -78 14 -216 18 -286 8z m190 -153 c36 0 46 -3 35 -10
-8 -5 -28 -10 -45 -10 -58 0 -221 -51 -320 -99 -135 -65 -257 -155 -385 -281
-147 -144 -214 -254 -241 -390 -11 -53 -14 -61 -20 -40 -4 14 -7 59 -8 101 -2
132 53 249 163 344 32 28 92 82 135 121 132 119 267 199 404 239 65 19 181 35
212 29 11 -2 43 -4 70 -4z m165 -209 c-31 -6 -28 -7 31 -13 78 -8 240 -58 324
-101 143 -71 286 -195 304 -262 12 -42 13 -229 2 -280 -8 -41 -43 -44 -118 -9
-32 14 -68 30 -80 35 -12 4 -31 25 -42 46 -40 79 -114 135 -201 152 -43 9 -79
8 -165 -4 -207 -29 -875 -32 -875 -4 0 21 74 124 123 172 52 50 153 129 192
149 30 16 8 -3 -65 -54 -36 -26 -83 -65 -105 -89 -34 -37 -31 -35 20 11 113
100 243 175 377 214 46 14 74 26 63 27 -55 4 51 17 145 17 62 -1 91 -3 70 -7z
m97 -7 c-3 -3 -12 -4 -19 -1 -8 3 -5 6 6 6 11 1 17 -2 13 -5z m-340 -10 c-3
-3 -12 -4 -19 -1 -8 3 -5 6 6 6 11 1 17 -2 13 -5z m-67 -19 c-46 -18 -64 -17
-25 0 17 8 37 14 45 14 8 0 -1 -7 -20 -14z m-81 -29 c-10 -9 -89 -46 -89 -41
0 6 72 44 84 45 5 0 7 -2 5 -4z m574 -526 c-13 -5 -82 -11 -155 -14 -116 -4
-123 -4 -53 4 44 5 89 11 100 13 11 2 45 5 75 5 42 1 50 -1 33 -8z m-258 -320
c3 -10 20 -31 37 -45 26 -22 39 -26 84 -24 48 2 56 0 88 -31 19 -19 32 -38 29
-44 -3 -5 -1 -6 5 -2 14 8 82 -8 139 -35 24 -10 47 -19 53 -19 5 0 11 -4 11
-10 1 -5 2 -14 3 -19 0 -5 5 -13 10 -18 5 -4 6 -3 2 4 -3 6 -2 14 3 17 9 6 45
-41 46 -59 0 -5 6 -20 12 -32 11 -18 8 -32 -27 -100 -45 -89 -103 -163 -174
-221 -38 -31 -52 -38 -61 -29 -58 56 -117 87 -165 87 l-27 0 20 42 c12 23 23
68 25 99 4 51 2 60 -21 83 -51 51 -118 19 -131 -62 -10 -63 -59 -112 -117
-119 -31 -4 -56 0 -78 11 -36 19 -71 70 -71 104 0 30 -25 78 -45 86 -57 21
-115 -18 -115 -77 0 -70 31 -139 92 -201 52 -54 56 -61 40 -73 -24 -18 -58
-26 -87 -21 -13 3 -22 1 -19 -3 3 -5 24 -9 47 -9 35 -1 39 -2 23 -11 -10 -6
-36 -9 -57 -6 -46 6 -123 76 -135 120 -5 22 -9 26 -16 15 -7 -9 -8 -7 -5 10 3
12 2 22 -2 22 -9 0 7 131 18 145 5 5 11 22 15 38 11 45 71 131 107 152 19 10
34 17 34 15 0 -2 11 2 24 9 19 11 22 11 15 -1 -6 -10 -5 -11 8 -1 8 7 18 10
21 7 3 -4 13 1 22 10 9 9 28 16 41 16 45 0 84 29 104 78 5 12 15 22 22 22 7 0
19 14 26 30 8 17 17 28 22 25 5 -3 10 -2 12 2 6 14 52 42 70 42 9 1 19 -8 23
-19z m-1130 -1361 c-82 -12 -123 -27 -170 -61 -41 -29 -95 -101 -95 -125 0 -7
-4 -13 -9 -13 -5 0 -15 38 -22 85 -11 78 -11 86 6 105 17 19 30 20 184 19 136
-1 155 -3 106 -10z m481 -199 c109 -25 358 -36 502 -24 35 3 69 4 76 1 10 -4
-23 -110 -123 -404 -75 -219 -140 -404 -145 -411 -6 -11 -12 -10 -26 6 -10 10
-21 28 -24 40 -4 12 -12 22 -17 22 -13 0 -11 121 3 160 10 30 12 32 19 14 7
-18 8 -18 8 3 1 12 5 24 10 27 5 3 12 30 15 59 21 167 -108 144 -298 -52 l-65
-68 -23 24 -22 24 176 177 c97 97 179 187 183 199 12 43 -30 92 -80 93 -25 0
-60 -31 -247 -218 -196 -196 -218 -221 -218 -251 0 -28 16 -50 112 -152 62
-66 116 -129 120 -139 9 -25 131 -147 228 -230 41 -35 77 -67 80 -70 18 -20
64 -49 71 -44 5 3 8 0 7 -6 -2 -6 8 -19 22 -28 13 -9 21 -11 16 -4 -11 17 19
15 34 -3 8 -9 21 -13 36 -9 14 4 24 2 24 -5 0 -7 8 -8 25 -1 14 5 25 6 25 2 0
-4 7 2 16 13 8 11 17 19 19 18 13 -7 26 1 63 40 40 41 116 170 106 180 -3 3
-1 8 5 11 5 4 15 -2 20 -12 15 -28 62 -45 92 -33 13 5 51 36 85 68 33 32 74
69 89 83 l28 25 -24 -45 c-28 -51 -36 -118 -19 -150 19 -36 -11 -20 -37 20
-16 23 -23 28 -23 15 0 -10 16 -33 35 -51 30 -30 40 -34 87 -34 29 1 67 7 83
15 26 13 26 14 5 9 -14 -3 3 12 40 35 135 85 201 159 222 250 6 28 15 51 19
51 13 0 -29 111 -58 155 -39 58 -242 257 -255 249 -7 -4 -8 -3 -4 4 4 7 -9 28
-30 50 -21 20 -27 25 -14 10 52 -61 -1 -22 -100 72 -58 55 -115 103 -128 106
-52 15 -113 -44 -98 -94 4 -11 2 -23 -3 -26 -5 -4 -20 -27 -33 -52 -36 -73
-38 -61 -6 39 52 162 53 166 41 186 -12 19 -2 20 70 12 22 -3 21 -3 -3 -11
l-25 -8 28 -1 c16 -1 37 4 48 9 10 6 19 7 19 2 0 -4 9 -8 20 -8 11 0 20 3 20
7 0 4 17 7 38 6 20 0 69 2 107 6 39 4 93 10 120 13 28 2 86 9 130 15 44 6 103
13 130 17 101 13 198 8 239 -12 l38 -19 -6 -61 c-4 -34 -36 -252 -72 -486 -35
-234 -76 -501 -90 -595 -17 -108 -32 -176 -42 -187 -14 -17 -70 -18 -912 -18
-1011 0 -910 -9 -949 81 -28 63 -39 119 -46 234 -3 55 -7 114 -9 130 -2 17 -7
62 -11 100 -3 39 -8 81 -10 95 -13 77 -29 158 -76 379 -19 90 -20 113 -11 163
19 102 68 156 183 198 47 18 69 20 178 15 68 -3 143 -10 167 -15z m-866 -611
c-47 -119 -93 -353 -103 -529 -2 -30 -4 -5 -5 55 -2 116 16 263 44 355 30 102
78 216 82 194 2 -11 -7 -45 -18 -75z m1840 -24 c9 -6 11 -4 5 5 -5 9 -4 11 3
6 32 -19 9 -55 -112 -174 -118 -117 -124 -122 -121 -90 2 18 4 33 5 33 1 0 4
13 6 30 3 16 9 35 15 41 5 6 6 14 2 17 -3 4 -1 7 6 7 7 0 10 4 6 9 -3 5 -1 12
5 16 6 4 8 11 5 16 -4 5 -2 9 4 9 6 0 13 11 17 24 3 14 18 29 35 36 16 7 29
15 29 19 0 9 75 5 90 -4z"/>
<path d="M15293 7233 c15 -2 37 -2 50 0 12 2 0 4 -28 4 -27 0 -38 -2 -22 -4z"/>
<path d="M15635 6170 c6 -10 76 -32 82 -26 2 2 -17 11 -42 19 -25 9 -43 12
-40 7z"/>
<path d="M15780 6116 c0 -2 7 -7 16 -10 8 -3 12 -2 9 4 -6 10 -25 14 -25 6z"/>
<path d="M14583 4763 c9 -2 23 -2 30 0 6 3 -1 5 -18 5 -16 0 -22 -2 -12 -5z"/>
<path d="M15100 3505 c0 -7 61 -37 66 -33 2 3 -12 12 -31 21 -19 9 -35 15 -35
12z"/>
<path d="M10300 7375 c-596 -82 -1124 -434 -1363 -911 -132 -262 -169 -482
-147 -868 12 -210 24 -335 75 -746 45 -363 59 -563 52 -745 -3 -82 -29 -379
-57 -660 -47 -466 -50 -512 -37 -541 31 -65 -37 -61 1269 -74 1099 -12 1189
-12 1212 4 55 36 56 47 44 360 -6 157 -9 288 -7 290 2 2 130 -5 284 -15 375
-24 426 -24 457 1 14 10 30 32 36 47 6 15 47 199 92 408 45 209 83 381 83 381
1 1 112 12 247 24 150 14 256 28 272 36 29 15 58 60 58 90 0 9 -124 316 -275
683 l-274 667 -11 109 c-71 753 -726 1370 -1555 1465 -120 13 -338 11 -455 -5z
m412 -1760 c75 -401 136 -731 134 -733 -5 -4 -220 -41 -224 -38 -4 5 -272
1434 -272 1454 0 16 14 21 93 34 50 9 101 15 112 14 17 -1 31 -64 157 -731z
m-672 448 l89 -67 -42 -50 c-23 -28 -95 -113 -160 -191 -66 -77 -121 -145
-124 -152 -3 -7 70 -101 161 -209 l165 -197 -91 -69 c-51 -37 -95 -65 -98 -61
-4 5 -98 118 -210 253 -112 135 -209 252 -217 261 -12 14 12 47 209 283 123
146 224 266 226 266 1 0 42 -30 92 -67z m1430 -198 c148 -178 218 -270 213
-279 -4 -7 -104 -128 -222 -269 l-214 -257 -31 23 c-17 13 -57 43 -88 66 -32
24 -58 46 -58 48 0 3 72 91 159 196 88 106 161 196 162 201 1 4 -70 94 -157
199 -88 105 -160 194 -162 198 -3 6 164 139 174 139 2 0 103 -119 224 -265z"/>
<path d="M4100 5365 c-310 -52 -571 -182 -790 -391 -198 -191 -323 -416 -377
-682 -16 -75 -18 -144 -18 -512 0 -414 1 -427 23 -504 93 -321 377 -558 725
-605 53 -8 582 -11 1625 -11 1697 0 1645 -2 1813 60 212 77 387 232 478 423
70 147 73 170 78 562 6 391 -4 540 -43 686 -127 475 -536 845 -1060 959 -54
12 -135 24 -179 27 -90 5 -79 11 -250 -117 -138 -103 -340 -192 -535 -235
-113 -25 -401 -31 -526 -12 -256 41 -511 154 -695 308 -76 63 -117 70 -269 44z
m1481 -798 c39 -26 59 -60 59 -100 0 -15 -88 -314 -196 -665 -212 -691 -209
-684 -286 -701 -76 -17 -168 45 -168 113 0 33 365 1240 395 1304 32 69 130 94
196 49z m-860 -316 c34 -34 39 -44 39 -87 0 -46 -2 -50 -77 -123 -43 -42 -106
-103 -141 -135 -35 -32 -62 -62 -60 -66 2 -4 53 -52 113 -105 152 -133 165
-149 165 -203 0 -38 -5 -50 -39 -83 -34 -35 -44 -39 -87 -39 -27 1 -59 6 -71
13 -11 7 -107 90 -212 185 -206 188 -223 211 -201 276 8 24 63 81 201 207 105
96 200 179 212 186 12 7 44 12 71 13 43 0 53 -4 87 -39z m1290 28 c31 -16 371
-334 397 -370 14 -20 22 -47 22 -71 0 -47 -12 -61 -240 -269 -187 -171 -227
-192 -298 -155 -70 37 -98 106 -65 162 10 18 76 85 147 150 l128 118 -141 133
c-115 110 -142 141 -147 170 -9 46 15 97 58 123 36 22 107 27 139 9z"/>
</g>
</svg>
